<?xml version="1.0" encoding="UTF-8" standalone="no"?>
<!--
 Copyright (C) 2020 Peter Mezei
 
 This file is part of Gardenzilla.
 
 Gardenzilla is free software: you can redistribute it and/or modify
 it under the terms of the GNU General Public License as published by
 the Free Software Foundation, either version 2 of the License, or
 (at your option) any later version.
 
 Gardenzilla is distributed in the hope that it will be useful,
 but WITHOUT ANY WARRANTY; without even the implied warranty of
 MERCHANTABILITY or FITNESS FOR A PARTICULAR PURPOSE.  See the
 GNU General Public License for more details.
 
 You should have received a copy of the GNU General Public License
 along with Gardenzilla.  If not, see <http://www.gnu.org/licenses/>.
-->
<!-- Generator: Adobe Illustrator 24.0.3, SVG Export Plug-In . SVG Version: 6.00 Build 0)  -->

<svg
   xmlns:dc="http://purl.org/dc/elements/1.1/"
   xmlns:cc="http://creativecommons.org/ns#"
   xmlns:rdf="http://www.w3.org/1999/02/22-rdf-syntax-ns#"
   xmlns:svg="http://www.w3.org/2000/svg"
   xmlns="http://www.w3.org/2000/svg"
   xmlns:sodipodi="http://sodipodi.sourceforge.net/DTD/sodipodi-0.dtd"
   xmlns:inkscape="http://www.inkscape.org/namespaces/inkscape"
   version="1.1"
   id="Layer_1"
   x="0px"
   y="0px"
   viewBox="0 0 595.28 595.28"
   style="enable-background:new 0 0 595.28 595.28;"
   xml:space="preserve"
   sodipodi:docname="logo.svg"
   inkscape:version="0.92.4 (fd57863, 2020-04-02)"><metadata
   id="metadata163"><rdf:RDF><cc:Work
       rdf:about=""><dc:format>image/svg+xml</dc:format><dc:type
         rdf:resource="http://purl.org/dc/dcmitype/StillImage" /></cc:Work></rdf:RDF></metadata><defs
   id="defs161" /><sodipodi:namedview
   pagecolor="#ffffff"
   bordercolor="#666666"
   borderopacity="1"
   objecttolerance="10"
   gridtolerance="10"
   guidetolerance="10"
   inkscape:pageopacity="0"
   inkscape:pageshadow="2"
   inkscape:window-width="1440"
   inkscape:window-height="836"
   id="namedview159"
   showgrid="false"
   inkscape:zoom="1.1213358"
   inkscape:cx="216.89412"
   inkscape:cy="310.85522"
   inkscape:window-x="0"
   inkscape:window-y="27"
   inkscape:window-maximized="1"
   inkscape:current-layer="Layer_1" />
<style
   type="text/css"
   id="style2">
	.st0{fill:#295135;}
	.st1{fill:#93D500;}
	.st2{fill:#CFDDBB;}
	.st3{fill:#FFFFFF;}
	.st4{fill:#FB5373;}
	.st5{fill:#F7BE00;}
	.st6{opacity:0.2;}
	.st7{opacity:0.1;}
</style>
<g
   id="g156">
	<g
   id="g6">
		<ellipse
   class="st0"
   cx="312.49"
   cy="65.9"
   rx="16.27"
   ry="16.56"
   id="ellipse4" />
	</g>
	<g
   id="g10">
		
			<ellipse
   transform="matrix(0.3968 -0.9179 0.9179 0.3968 145.0798 379.0716)"
   class="st0"
   cx="360.98"
   cy="79.14"
   rx="17.6"
   ry="19.98"
   id="ellipse8" />
	</g>
	<g
   id="g14">
		
			<ellipse
   transform="matrix(0.8273 -0.5618 0.5618 0.8273 5.8412 246.7246)"
   class="st0"
   cx="404.14"
   cy="113.86"
   rx="16.03"
   ry="16.56"
   id="ellipse12" />
	</g>
	<g
   id="g18">
		
			<ellipse
   transform="matrix(0.998 -0.0627 0.0627 0.998 -16.2086 27.998)"
   class="st0"
   cx="438.05"
   cy="272.29"
   rx="21.39"
   ry="21.09"
   id="ellipse16" />
	</g>
	<g
   id="g22">
		
			<ellipse
   transform="matrix(0.998 -0.0627 0.0627 0.998 -12.7226 27.6678)"
   class="st0"
   cx="434.53"
   cy="216.57"
   rx="21.39"
   ry="21.09"
   id="ellipse20" />
	</g>
	<g
   id="g26">
		
			<ellipse
   transform="matrix(0.9877 -0.1562 0.1562 0.9877 -20.0398 68.687)"
   class="st0"
   cx="427.1"
   cy="161.87"
   rx="18.61"
   ry="18.36"
   id="ellipse24" />
	</g>
	<g
   id="g30">
		<ellipse
   class="st0"
   cx="451.72"
   cy="325.28"
   rx="13.94"
   ry="16.56"
   id="ellipse28" />
	</g>
	<g
   id="g34">
		<ellipse
   class="st0"
   cx="457.49"
   cy="379.19"
   rx="14.12"
   ry="16.56"
   id="ellipse32" />
	</g>
	<g
   id="g38">
		<ellipse
   class="st0"
   cx="475.11"
   cy="431.89"
   rx="15.18"
   ry="16.56"
   id="ellipse36" />
	</g>
	<g
   id="g42">
		<path
   class="st1"
   d="M457.1,383.84c-6.44-23.98-9.33-48.94-11.53-73.63c-3.28-36.8-8.73-73.72-14.65-110.21    c-9.6-59.18-38.54-112.17-102.1-123.32C247.6,62.44,70.56,45.72,51.38,173.96c-9.34,62.45,41.36,130.89,136.14,108.71    c-18.29,28.23-33.06,60.5-41.4,93.05c-7.92,30.93-8.07,59.2,9.39,86.71c15.27,24.06,38.89,42.37,64.93,53.5    c34.11,14.59,68.91,16.73,105.28,17.24c36.85,0.52,73.66-0.62,110.45-5.12c33.69-4.12,71.43-10.46,100.73-28.97    c3.1-1.96,7.37-4.18,9.65-7.2c-5.11,6.79-42.12-23.43-45.97-27.28c-13.96-13.98-24.56-31.6-32.56-49.6    C463.51,404.89,459.96,394.46,457.1,383.84z"
   id="path40" />
	</g>
	<g
   id="g46">
		<path
   class="st2"
   d="M187.21,282.69c0,0,120.84,91.61,78.61,246.44c0,0-146.49-11.21-120.28-160.23    C147.47,357.94,187.21,282.69,187.21,282.69z"
   id="path44" />
	</g>
	<g
   id="g50">
		<path
   class="st0"
   d="M347.88,545.93c-16.62,0-33.24-0.7-49.79-2.1c-36.35-3.08-77.56-6.56-111.16-28.91    c-27.15-18.06-46.77-45.54-53.82-75.39c-4.38-18.53-3.4-39.86,2.98-65.22c6.28-24.92,16.53-50.16,31.86-78.24    c-17.31,1.8-33.48,0.74-48.24-3.19c-52.8-14.03-86.46-65.79-78.29-120.41c5.01-33.52,22.16-62.33,48.3-81.15    c43.71-31.47,101.59-34.63,141.29-34.3c21.05,0.19,43.19,1.82,69.67,5.16c34.57,4.36,70.17,12.07,96.33,38.8    c19.68,20.11,33.13,47.76,39.97,82.17c6.38,32.14,10.01,65.14,13.51,97.05c3.68,33.49,7.48,68.12,14.47,101.21l0.16,0.77    c0,0,0,0.01,0,0.02c4.83,22.2,15.06,43.6,29.58,61.92c13.99,17.65,29.82,25.98,49.87,36.52l5.14,2.71    c2.9,1.54,4.87,4.39,5.28,7.65c0.41,3.26-0.81,6.51-3.24,8.72c-13.47,12.17-55.98,27.82-78.05,32.44    c-14.51,3.02-31.39,6.43-48.2,8.66C399.82,544.22,373.85,545.93,347.88,545.93z M187.21,272.62c3.18,0,6.23,1.51,8.15,4.16    c2.36,3.26,2.55,7.61,0.49,11.07c-20.32,34.02-33.1,63.06-40.24,91.38c-5.58,22.15-6.53,40.36-2.92,55.67    c5.89,24.94,22.43,48,45.38,63.26c29.3,19.48,67.77,22.74,101.71,25.61c40.98,3.48,82.38,2.49,123.06-2.92    c16.14-2.14,32.59-5.47,46.74-8.41c16.18-3.38,39.8-12,55.17-19.54c-16.51-8.99-32.07-18.92-45.83-36.27    c-16.42-20.71-28-44.96-33.48-70.14v-0.01c0,0,0,0,0-0.01l-0.2-0.94c-7.18-34.02-11.04-69.16-14.77-103.13    c-3.46-31.48-7.03-64.04-13.25-95.32c-6.06-30.51-17.7-54.74-34.61-72.01c-20.62-21.07-48.68-28.39-84.45-32.9    c-25.69-3.23-47.08-4.83-67.33-5c-36.91-0.36-90.44,2.48-129.35,30.5c-21.69,15.62-35.94,39.69-40.15,67.79    c-6.65,44.46,20.67,86.58,63.55,97.97c17.78,4.72,37.45,4.55,60.11-0.56C185.73,272.7,186.48,272.62,187.21,272.62z"
   id="path48" />
	</g>
	<g
   id="g60">
		<g
   id="g54">
			<ellipse
   class="st0"
   cx="327.92"
   cy="161.21"
   rx="17.72"
   ry="22.63"
   id="ellipse52" />
		</g>
		<g
   id="g58">
			<ellipse
   class="st3"
   cx="335.5"
   cy="156.7"
   rx="9.63"
   ry="10.84"
   id="ellipse56" />
		</g>
	</g>
	<g
   id="g64">
		<path
   class="st0"
   d="M155.61,373.86c2.8,1.14,6.88,2.16,10.55,2.83c3.78,0.71,7.65,1.22,11.56,1.58    c7.81,0.73,15.75,0.83,23.69,0.53c7.95-0.22,15.9-1.02,23.86-1.93l11.9-1.71l11.86-2.12l-11.59,3.35l-11.72,2.95    c-7.88,1.74-15.81,3.4-23.86,4.46c-8.04,1.16-16.18,1.91-24.42,2c-4.12,0.05-8.26-0.05-12.43-0.39    c-4.28-0.38-8.15-0.78-12.97-2.15c-2.68-0.76-4.24-3.55-3.48-6.23s3.55-4.24,6.23-3.48c0.18,0.05,0.35,0.11,0.52,0.18    L155.61,373.86z"
   id="path62" />
	</g>
	<g
   id="g68">
		<path
   class="st0"
   d="M147.5,423.59c7.53,3.34,16.15,6,24.63,7.85c8.56,1.89,17.32,2.95,26.13,3.23c4.41,0.27,8.82-0.04,13.25-0.16    c4.38-0.52,8.85-0.71,13.19-1.66c8.82-1.32,17.31-4.21,25.71-7.39c-8.04,3.94-16.34,7.67-25.16,9.84c-4.34,1.39-8.84,2-13.31,2.96    c-4.51,0.55-9.04,1.28-13.6,1.44c-9.12,0.56-18.33,0.32-27.46-0.82c-9.2-1.16-18.06-2.93-27.28-6.02    c-2.64-0.89-4.06-3.74-3.18-6.39s3.74-4.06,6.39-3.18c0.15,0.05,0.29,0.11,0.43,0.17L147.5,423.59z"
   id="path66" />
	</g>
	<g
   id="g72">
		<path
   class="st0"
   d="M172.08,480.07c5.25,2.15,11.55,3.8,17.61,4.92c6.14,1.12,12.42,1.85,18.74,1.96    c6.31,0.13,12.69-0.08,19.01-0.99c6.35-0.73,12.6-2.23,18.83-3.92c-5.94,2.47-12.02,4.81-18.35,6.38    c-6.28,1.75-12.76,2.83-19.3,3.55c-6.54,0.73-13.17,0.84-19.81,0.51c-6.71-0.39-13.14-1.11-20.14-2.94    c-2.7-0.71-4.31-3.47-3.61-6.17c0.71-2.7,3.47-4.31,6.17-3.61c0.21,0.05,0.41,0.12,0.61,0.2L172.08,480.07z"
   id="path70" />
	</g>
	<g
   id="g134">
		<g
   id="g82">
			<g
   id="g76">
				<circle
   class="st4"
   cx="267.45"
   cy="374.74"
   r="24.38"
   id="circle74" />
			</g>
			<g
   id="g80">
				<path
   class="st0"
   d="M243.07,374.74c0.01-6.37,2.28-12.79,6.65-17.73c4.29-4.97,10.67-8.46,17.73-9.15      c7.03-0.74,14.66,1.57,20.29,6.59c5.63,4.98,9.19,12.57,9.12,20.29c0.07,7.72-3.46,15.33-9.1,20.31      c-5.63,5.04-13.28,7.34-20.31,6.6c-7.06-0.69-13.45-4.19-17.74-9.17C245.34,387.53,243.09,381.1,243.07,374.74z M243.07,374.74      c-0.05,6.42,2.94,12.67,7.64,16.74c4.72,4.1,11.02,5.84,16.74,5.11c5.75-0.7,10.79-3.64,14.17-7.68      c3.43-4.03,5.15-9.1,5.18-14.17c-0.03-5.06-1.72-10.15-5.16-14.18c-3.37-4.05-8.42-6.99-14.18-7.69      c-5.73-0.73-12.03,1.03-16.74,5.13C246,362.06,243.02,368.32,243.07,374.74z"
   id="path78" />
			</g>
		</g>
		<g
   id="g92">
			<g
   id="g86">
				<circle
   class="st4"
   cx="257.01"
   cy="340.42"
   r="24.38"
   id="circle84" />
			</g>
			<g
   id="g90">
				<path
   class="st0"
   d="M232.63,340.42c0.01-6.37,2.28-12.79,6.65-17.73c4.29-4.97,10.67-8.46,17.73-9.15      c7.03-0.74,14.66,1.57,20.29,6.59c5.63,4.98,9.19,12.57,9.12,20.29c0.07,7.72-3.46,15.33-9.1,20.31      c-5.63,5.04-13.28,7.34-20.31,6.6c-7.06-0.69-13.45-4.19-17.74-9.17C234.9,353.21,232.65,346.79,232.63,340.42z M232.63,340.42      c-0.05,6.42,2.94,12.67,7.64,16.74c4.72,4.1,11.02,5.84,16.74,5.11c5.75-0.7,10.79-3.64,14.17-7.68      c3.43-4.03,5.15-9.1,5.18-14.17c-0.03-5.06-1.71-10.15-5.16-14.18c-3.37-4.05-8.42-6.99-14.18-7.69      c-5.73-0.73-12.03,1.03-16.74,5.13C235.56,327.75,232.58,334,232.63,340.42z"
   id="path88" />
			</g>
		</g>
		<g
   id="g102">
			<g
   id="g96">
				<circle
   class="st4"
   cx="286.93"
   cy="319.37"
   r="24.38"
   id="circle94" />
			</g>
			<g
   id="g100">
				<path
   class="st0"
   d="M262.55,319.37c0.01-6.37,2.28-12.79,6.65-17.73c4.29-4.97,10.67-8.46,17.73-9.15      c7.03-0.74,14.66,1.57,20.29,6.59c5.63,4.98,9.19,12.57,9.12,20.29c0.07,7.72-3.46,15.33-9.1,20.31      c-5.63,5.04-13.28,7.34-20.31,6.6c-7.06-0.69-13.45-4.19-17.74-9.17C264.82,332.16,262.56,325.73,262.55,319.37z M262.55,319.37      c-0.05,6.42,2.94,12.67,7.64,16.74c4.72,4.1,11.02,5.84,16.74,5.11c5.75-0.7,10.79-3.64,14.17-7.68      c3.43-4.03,5.15-9.1,5.18-14.17c-0.03-5.06-1.71-10.15-5.16-14.18c-3.37-4.05-8.42-6.99-14.18-7.69      c-5.73-0.73-12.03,1.03-16.74,5.13C265.48,306.69,262.5,312.95,262.55,319.37z"
   id="path98" />
			</g>
		</g>
		<g
   id="g112">
			<g
   id="g106">
				<circle
   class="st4"
   cx="320.17"
   cy="341.53"
   r="24.38"
   id="circle104" />
			</g>
			<g
   id="g110">
				<path
   class="st0"
   d="M295.79,341.53c0.01-6.37,2.28-12.79,6.65-17.73c4.29-4.97,10.67-8.46,17.73-9.15      c7.03-0.74,14.66,1.57,20.29,6.59c5.63,4.98,9.19,12.57,9.12,20.29c0.07,7.72-3.46,15.33-9.1,20.31      c-5.63,5.04-13.28,7.34-20.31,6.6c-7.06-0.69-13.45-4.19-17.74-9.17C298.06,354.32,295.8,347.89,295.79,341.53z M295.79,341.53      c-0.05,6.42,2.94,12.67,7.64,16.74c4.72,4.1,11.02,5.84,16.74,5.11c5.75-0.7,10.79-3.64,14.17-7.68      c3.43-4.03,5.15-9.1,5.18-14.17c-0.03-5.06-1.71-10.15-5.16-14.18c-3.37-4.05-8.42-6.99-14.18-7.69      c-5.73-0.73-12.03,1.03-16.74,5.13C298.72,328.85,295.74,335.11,295.79,341.53z"
   id="path108" />
			</g>
		</g>
		<g
   id="g122">
			<g
   id="g116">
				<circle
   class="st4"
   cx="307.5"
   cy="376.52"
   r="24.38"
   id="circle114" />
			</g>
			<g
   id="g120">
				<path
   class="st0"
   d="M283.12,376.52c0.01-6.37,2.28-12.79,6.65-17.73c4.29-4.97,10.67-8.46,17.73-9.15      c7.03-0.74,14.66,1.57,20.29,6.59c5.63,4.98,9.19,12.57,9.12,20.29c0.07,7.72-3.46,15.33-9.1,20.31      c-5.63,5.04-13.28,7.34-20.31,6.6c-7.06-0.69-13.45-4.19-17.74-9.17C285.39,389.31,283.13,382.88,283.12,376.52z M283.12,376.52      c-0.05,6.42,2.94,12.67,7.64,16.74c4.72,4.1,11.02,5.84,16.74,5.11c5.75-0.7,10.79-3.64,14.17-7.68      c3.43-4.03,5.15-9.1,5.18-14.17c-0.03-5.06-1.72-10.15-5.16-14.18c-3.37-4.05-8.42-6.99-14.18-7.69      c-5.73-0.73-12.03,1.03-16.74,5.13C286.05,363.84,283.07,370.1,283.12,376.52z"
   id="path118" />
			</g>
		</g>
		<g
   id="g132">
			<g
   id="g126">
				<circle
   class="st5"
   cx="286.93"
   cy="350.39"
   r="31.02"
   id="circle124" />
			</g>
			<g
   id="g130">
				<path
   class="st0"
   d="M255.9,350.39c-0.11-8.13,3.04-16.25,8.59-22.43c5.52-6.21,13.63-10.42,22.43-11.1      c8.77-0.75,18.13,2.28,24.99,8.54c3.38,3.15,6.24,6.96,8.14,11.27c1.86,4.31,2.85,9.02,2.92,13.73      c-0.03,9.44-4.12,18.81-11.05,25.01c-6.86,6.28-16.23,9.29-25.01,8.55c-8.81-0.68-16.92-4.9-22.44-11.12      C258.94,366.65,255.8,358.53,255.9,350.39z M255.9,350.39c0.05,8.14,3.59,16.16,9.59,21.44c5.95,5.33,13.97,7.8,21.44,7.06      c7.5-0.69,14.26-4.35,18.87-9.63c4.62-5.27,7.21-12.04,7.13-18.87c0.09-6.83-2.48-13.62-7.11-18.88      c-4.6-5.29-11.38-8.95-18.88-9.64c-7.47-0.73-15.5,1.74-21.44,7.08C259.49,334.24,255.95,342.26,255.9,350.39z"
   id="path128" />
			</g>
		</g>
	</g>
	<g
   id="g138">
		<path
   class="st0"
   d="M151.27,176.9c-2.21,0-4.24-1.46-4.85-3.7c-1.74-6.28-1.62-12.74,0.32-18.17    c2.13-5.97,6.38-10.23,11.65-11.68c5.27-1.46,11.1,0.02,15.99,4.06c4.45,3.67,7.86,9.15,9.6,15.44c0.74,2.68-0.83,5.45-3.51,6.19    c-2.71,0.73-5.45-0.84-6.19-3.51c-1.17-4.24-3.47-8.02-6.29-10.35c-1.37-1.13-4.08-2.89-6.91-2.12c-2.82,0.78-4.24,3.69-4.84,5.36    c-1.23,3.45-1.27,7.87-0.1,12.11c0.74,2.68-0.83,5.45-3.51,6.19C152.17,176.84,151.72,176.9,151.27,176.9z"
   id="path136" />
	</g>
	<g
   id="g142">
		
			<ellipse
   transform="matrix(0.964 -0.266 0.266 0.964 -39.0415 50.0925)"
   class="st0"
   cx="165.37"
   cy="169.15"
   rx="6.14"
   ry="10.47"
   id="ellipse140" />
	</g>
	<g
   class="st6"
   id="g148">
		<g
   id="g146">
			<path
   class="st0"
   d="M440.52,414.51c3.5,7.69,6.92,15.01,10.94,21.9c3.9,6.91,8.12,13.42,12.78,19.31     c4.7,5.85,9.76,11.15,15.4,15.42c5.56,4.39,11.72,7.66,18.21,10.17l0.38,0.15c5.14,1.98,7.69,7.75,5.71,12.89     c-1.13,2.92-3.52,5.02-6.29,5.91c-10.24,3.25-20.12,5.74-30.31,7.91c-10.12,2.19-20.32,3.92-30.57,5.26     c-20.51,2.57-41.24,3.67-61.94,1.96c9.89-3.27,19.78-5.85,29.57-8.76l29.29-8.3l29.06-8.34c9.58-2.84,19.38-5.73,28.54-8.74     l-0.2,18.94c-8.81-3.13-17.08-8.02-23.93-14.26c-6.88-6.22-12.4-13.6-16.54-21.45c-4.16-7.85-7.06-16.14-8.75-24.56     C440.33,431.48,439.41,422.97,440.52,414.51z"
   id="path144" />
		</g>
	</g>
	<g
   class="st7"
   id="g154">
		<g
   id="g152">
			<path
   class="st0"
   d="M175.03,91.25c-20.74,9.57-38.5,22.1-52.85,37.08c-14.26,14.9-24.55,32.59-26.85,51.01     c-1.21,9.27-0.52,18.63,2.17,27.4c2.68,8.82,7.54,17.12,13.95,24.69c12.99,15.17,31.68,26.69,52.85,35.2     c-22.88,1.85-47.29-5.04-66.65-20.97c-9.64-7.95-17.74-18.56-22.64-30.82c-4.9-12.29-6.29-25.82-4.64-38.71     c1.72-13.01,6.59-25.34,13.49-35.87c6.89-10.57,15.64-19.5,25.33-26.74C128.57,99.2,151.93,90.63,175.03,91.25z"
   id="path150" />
		</g>
	</g>
</g>
<text
   xml:space="preserve"
   style="font-style:normal;font-weight:normal;font-size:10.66666698px;line-height:1.25;font-family:sans-serif;letter-spacing:0px;word-spacing:0px;fill:#000000;fill-opacity:1;stroke:none"
   x="458.54105"
   y="47.399551"
   id="text3779"><tspan
     sodipodi:role="line"
     id="tspan3777"
     x="458.54105"
     y="47.399551"
     style="font-size:10.66666698px;line-height:0">Gardenzilla</tspan><tspan
     sodipodi:role="line"
     x="458.54105"
     y="60.732883"
     id="tspan3781"
     style="font-size:10.66666698px;line-height:0">All right reserved</tspan><tspan
     sodipodi:role="line"
     x="458.54105"
     y="74.066223"
     id="tspan3783"
     style="font-size:10.66666698px;line-height:0">Gardenova Ltd</tspan><tspan
     sodipodi:role="line"
     x="458.54105"
     y="87.399551"
     style="font-size:10.66666698px;line-height:0"
     id="tspan3785">Hungary, 2020.</tspan></text>
<text
   id="text3795"
   y="452.87329"
   x="344.77707"
   style="font-style:normal;font-weight:normal;font-size:10.66666698px;line-height:1.25;font-family:sans-serif;letter-spacing:0px;word-spacing:0px;fill:#000000;fill-opacity:1;stroke:none"
   xml:space="preserve"><tspan
     style="font-size:10.66666698px;line-height:0;fill:#808000"
     y="452.87329"
     x="344.77707"
     id="tspan3787"
     sodipodi:role="line">Gardenzilla</tspan><tspan
     style="font-size:10.66666698px;line-height:0;fill:#808000"
     id="tspan3789"
     y="466.2066"
     x="344.77707"
     sodipodi:role="line">All right reserved</tspan><tspan
     style="font-size:10.66666698px;line-height:0;fill:#808000"
     id="tspan3791"
     y="479.53998"
     x="344.77707"
     sodipodi:role="line">Gardenova Ltd</tspan><tspan
     id="tspan3793"
     style="font-size:10.66666698px;line-height:0;fill:#808000"
     y="492.87329"
     x="344.77707"
     sodipodi:role="line">Hungary, 2020.</tspan></text>
<text
   xml:space="preserve"
   style="font-style:normal;font-weight:normal;font-size:2.77618003px;line-height:1.25;font-family:sans-serif;letter-spacing:0px;word-spacing:0px;fill:#000000;fill-opacity:1;stroke:none;stroke-width:0.26026687"
   x="88.638176"
   y="134.16464"
   id="text3805"><tspan
     sodipodi:role="line"
     id="tspan3797"
     x="88.638176"
     y="134.16464"
     style="font-size:2.77618003px;line-height:0;fill:#808000;stroke-width:0.26026687">Gardenzilla</tspan><tspan
     sodipodi:role="line"
     x="88.638176"
     y="137.63486"
     id="tspan3799"
     style="font-size:2.77618003px;line-height:0;fill:#808000;stroke-width:0.26026687">All right reserved</tspan><tspan
     sodipodi:role="line"
     x="88.638176"
     y="141.10509"
     id="tspan3801"
     style="font-size:2.77618003px;line-height:0;fill:#808000;stroke-width:0.26026687">Gardenova Ltd</tspan><tspan
     sodipodi:role="line"
     x="88.638176"
     y="144.57532"
     style="font-size:2.77618003px;line-height:0;fill:#808000;stroke-width:0.26026687"
     id="tspan3803">Hungary, 2020.</tspan></text>
<text
   id="text3815"
   y="344.76245"
   x="264.07349"
   style="font-style:normal;font-weight:normal;font-size:5.04452181px;line-height:1.25;font-family:sans-serif;letter-spacing:0px;word-spacing:0px;fill:#000000;fill-opacity:1;stroke:none;stroke-width:0.4729239"
   xml:space="preserve"><tspan
     style="font-size:5.04452181px;line-height:0;fill:#808000;stroke-width:0.4729239"
     y="344.76245"
     x="264.07349"
     id="tspan3807"
     sodipodi:role="line">Gardenzilla</tspan><tspan
     style="font-size:5.04452181px;line-height:0;fill:#808000;stroke-width:0.4729239"
     id="tspan3809"
     y="351.06812"
     x="264.07349"
     sodipodi:role="line">All right reserved</tspan><tspan
     style="font-size:5.04452181px;line-height:0;fill:#808000;stroke-width:0.4729239"
     id="tspan3811"
     y="357.37375"
     x="264.07349"
     sodipodi:role="line">Gardenova Ltd</tspan><tspan
     id="tspan3813"
     style="font-size:5.04452181px;line-height:0;fill:#808000;stroke-width:0.4729239"
     y="363.67941"
     x="264.07349"
     sodipodi:role="line">Hungary, 2020.</tspan></text>
</svg>